<?xml version="1.0" encoding="UTF-8"?>
<!DOCTYPE svg PUBLIC "-//W3C//DTD SVG 1.1//EN" "http://www.w3.org/Graphics/SVG/1.1/DTD/svg11.dtd">
<!-- Creator: CorelDRAW X8 -->
<svg xmlns="http://www.w3.org/2000/svg" xml:space="preserve" width="258px" height="37px" version="1.1" style="shape-rendering:geometricPrecision; text-rendering:geometricPrecision; image-rendering:optimizeQuality; fill-rule:evenodd; clip-rule:evenodd"
viewBox="0 0 5718557 820112"
 xmlns:xlink="http://www.w3.org/1999/xlink">
 <defs>
  <style type="text/css">
   <![CDATA[
    .fil0 {fill:#37C999}
    .fil1 {fill:#3D4B5E}
   ]]>
  </style>
 </defs>
 <g id="Слой_x0020_1">
  <metadata id="CorelCorpID_0Corel-Layer"/>
  <path class="fil0" d="M172651 0l474810 0c94978,0 172651,77673 172651,172651l0 474810c0,94978 -77673,172651 -172651,172651l-474810 0c-94978,0 -172651,-77673 -172651,-172651l0 -474810c0,-94978 77673,-172651 172651,-172651zm2066000 221658l177337 0 0 113617 110816 -110816 177311 0 -288127 288127 0 285352 -177337 0 0 -576280zm-66495 576280l-465490 0c-73144,0 -132963,-59819 -132963,-132963l0 -310353c0,-73145 59819,-132964 132963,-132964l332527 0c73144,0 132963,59819 132963,132964l0 221658 -443290 0 0 88668 443290 0 0 132990zm-443290 -443290l288153 0 0 88642 -288153 0 0 -88642zm-432217 443316l-177310 0 -277080 -576306 199485 0 166237 375879 166263 -375879 199485 0 -277080 576306zm-1119286 -110868l465412 0 0 -554106 -465412 0 0 554106z"/>
  <path class="fil1" d="M3324742 797938l-155163 0 0 -421143 -288153 0 0 421143 -155137 0 0 -576280 465490 0c73144,0 132963,59819 132963,132964l0 443316zm1950524 0l-26 0 -155137 0 0 -576280 0 -132989 155163 0 0 132989 310327 0c73145,0 132964,59819 132964,132964l0 443316 -155164 0 0 -421143 -288127 0 0 421143zm-199484 0l-465490 0c-73145,0 -132964,-59819 -132964,-132963l0 -310353c0,-73145 59819,-132964 132964,-132964l332526 0c73145,0 132964,59819 132964,132964l0 22173 -443290 0 0 288153 443290 0 0 132990zm-664949 0l-155163 0 0 -709269 155163 0 0 709269zm-1041770 -576306l155164 0 0 421143 288153 0 0 -421143 155137 0 0 576280 -465490 0c-73144,0 -132964,-59819 -132964,-132964l0 -443316zm820112 576306l-155163 0 0 -709269 155163 0 0 709269z"/>
 </g>
</svg>
