<svg style="position: absolute; width: 0; height: 0; overflow: hidden;" version="1.1" xmlns="http://www.w3.org/2000/svg" xmlns:xlink="http://www.w3.org/1999/xlink">
<defs>
<symbol id="i-drawer" viewBox="0 0 32 32">
<title>drawer</title>
<path class="path1" d="M15.511 4.665l3.036 11.335-3.036 11.335-2.061-0.553 2.887-10.782-2.887-10.782 2.061-0.553zM22.138 4.665l3.036 11.335-3.036 11.335-2.061-0.553 2.887-10.782-2.887-10.782 2.061-0.553zM8.886 4.665l3.036 11.335-3.036 11.335-2.061-0.553 2.887-10.782-2.887-10.782 2.061-0.553z"></path>
</symbol>
<symbol id="i-drag" viewBox="0 0 32 32">
<title>drag</title>
<path class="path1" d="M2.123 20.266h27.744v-2.133h-27.744v2.133zM2.123 13.867h27.744v-2.134h-27.744v2.134zM6.389 26.666h19.212v-2.133h-19.212v2.133zM6.389 7.465h19.212v-2.134h-19.212v2.134z"></path>
</symbol>
<symbol id="i-x" viewBox="0 0 32 32">
<title>x</title>
<path class="path1" d="M8.615 10.125l5.875 5.875-5.875 5.875 1.51 1.509 5.875-5.875 5.875 5.875 1.509-1.509-5.875-5.875 5.875-5.875-1.509-1.51-5.875 5.875-5.875-5.875z"></path>
</symbol>
<symbol id="i-info" viewBox="0 0 32 32">
<title>info</title>
<path class="path1" d="M10.666 24.534h10.667v-2.134h-3.2v-9.599h-6.4v2.134h3.2v7.465h-4.267v2.134zM14.933 7.467v3.2h3.2v-3.2h-3.2z"></path>
</symbol>
<symbol id="i-code" viewBox="0 0 32 32">
<title>code</title>
<path class="path1" d="M6.272 15.951l7.584-4.014v-2.414l-9.589 5.073v2.71l9.589 5.073v-2.415l-7.584-4.014zM25.73 15.951l-7.584-4.014v-2.414l9.589 5.073v2.71l-9.589 5.073v-2.415l7.584-4.014z"></path>
</symbol>
<symbol id="i-down-chevron" viewBox="0 0 32 32">
<title>down-chevron</title>
<path class="path1" d="M8.616 13.285l7.384 6.94 7.384-6.94-1.509-1.509-5.875 5.875-5.875-5.875z"></path>
</symbol>
<symbol id="i-search" viewBox="0 0 32 32">
<title>search</title>
<path class="path1" d="M13.333 5.333c2.207 0 4.208 0.897 5.655 2.343 1.448 1.448 2.343 3.448 2.343 5.657 0 1.721-0.544 3.316-1.47 4.62l6.324 5.575c0.3 0.262 0.462 0.611 0.474 1.013s-0.132 0.758-0.412 1.038l-0.677 0.677c-0.28 0.28-0.636 0.423-1.038 0.412s-0.752-0.175-1.013-0.474l-5.571-6.332c-1.305 0.926-2.898 1.47-4.616 1.47-2.209 0-4.209-0.896-5.657-2.343-1.447-1.446-2.343-3.447-2.343-5.655s0.896-4.209 2.343-5.657c1.446-1.446 3.448-2.343 5.657-2.343zM17.857 8.808c-1.158-1.157-2.758-1.875-4.524-1.875-1.767 0-3.369 0.718-4.525 1.875-1.158 1.158-1.875 2.759-1.875 4.525s0.717 3.368 1.875 4.524c1.158 1.158 2.758 1.875 4.525 1.875s3.369-0.716 4.524-1.871v-0.004c1.157-1.157 1.875-2.758 1.875-4.524s-0.717-3.368-1.875-4.525z"></path>
</symbol>
<symbol id="i-plus" viewBox="0 0 32 32">
<title>plus</title>
<path class="path1" d="M14.933 6.4v8.533h-8.533v2.134h8.533v8.533h2.134v-8.533l8.533-0.001v-2.134l-8.533 0.001v-8.533z"></path>
</symbol>
<symbol id="i-turnleft" viewBox="0 0 41 32">
<title>derp</title>
<path class="path1" d="M0 8.532l14.934-8.532v6.397h17.897c2.111 0 4.036 0.869 5.433 2.26 1.401 1.406 2.27 3.331 2.27 5.442v17.9h-4.268v-17.9c0-0.942-0.383-1.801-1-2.424-0.632-0.627-1.492-1.011-2.434-1.011h-17.897v6.4l-14.934-8.534z"></path>
</symbol>
</defs>
</svg>
