<?xml version="1.0" encoding="UTF-8"?>
<!DOCTYPE svg PUBLIC "-//W3C//DTD SVG 1.1//EN" "http://www.w3.org/Graphics/SVG/1.1/DTD/svg11.dtd">
<!-- Creator: CorelDRAW 2017 -->
<svg xmlns="http://www.w3.org/2000/svg" xml:space="preserve" width="200.18mm" height="200.18mm" version="1.1" style="shape-rendering:geometricPrecision; text-rendering:geometricPrecision; image-rendering:optimizeQuality; fill-rule:evenodd; clip-rule:evenodd"
viewBox="0 0 1997.83 1997.83"
 xmlns:xlink="http://www.w3.org/1999/xlink">
 <defs>
  <style type="text/css">
   <![CDATA[
    .fil0 {fill:#FEFEFE}
   ]]>
  </style>
 </defs>
 <g id="Слой_x0020_1">
  <metadata id="CorelCorpID_0Corel-Layer"/>
  <path class="fil0" d="M1408.73 854.95c39.34,-81.06 36.95,-153.2 58.35,-220.33 19.85,-62.26 90.65,-181.51 164.78,-107.39 39.8,39.8 29.96,107.13 47.33,125.57l0.01 -0c1.35,1.71 2.91,3.34 4.71,4.84 57.05,47.64 257.17,33.5 251.04,-34.85 -0.76,-8.43 -4.96,-17.77 -13.61,-26.5l0.01 -0 -0.07 -0.06c-2.54,-2.56 -5.46,-5.06 -8.79,-7.47 -11.71,-9.75 -27.37,-22.72 -51.77,-49.72 -40.23,-44.5 -54.31,-141.1 -99.73,-190.39 -97.2,-105.49 -240.74,-102.9 -338.26,-5.37 -57.04,57.04 -76.84,133 -188.1,244.26 -13.07,13.07 -27.81,24.17 -43.25,33.59l-0.01 -0.04 0.01 0.04c-73.58,44.91 -163.03,51.74 -163.03,51.74 0,0 88.93,-14.35 158.55,-65.52 -29.5,-85.14 -82.2,-134.46 -114.54,-197.06 -29.99,-58.06 -64.24,-192.45 40.58,-192.45 56.29,0 96.94,54.57 122.25,55.32l0.01 -0.01c2.17,0.26 4.41,0.3 6.75,0.09 74.02,-6.65 205.54,-158.16 152.86,-202.16 -6.5,-5.42 -16.08,-9.06 -28.36,-9.12l0 -0.01 -0.09 0.01c-3.6,-0.01 -7.44,0.28 -11.5,0.93 -15.18,1.39 -35.42,3.29 -71.76,1.45 -59.91,-3.02 -138.17,-61.37 -205.14,-64.11 -143.33,-5.86 -242.99,97.47 -242.99,235.39 0,80.66 39.71,148.38 39.71,305.72 0,18.48 -2.58,36.75 -6.83,54.34 -20.27,83.79 -78.69,151.87 -78.69,151.87 0,0 52.74,-73.03 65.78,-158.45 -81.06,-39.34 -153.2,-36.95 -220.33,-58.35 -62.26,-19.85 -181.51,-90.65 -107.39,-164.77 39.8,-39.8 107.13,-29.96 125.56,-47.33l-0 -0.01c1.71,-1.35 3.34,-2.91 4.84,-4.71 47.64,-57.05 33.5,-257.17 -34.86,-251.04 -8.43,0.76 -17.77,4.96 -26.5,13.61l-0 -0.01 -0.06 0.07c-2.56,2.54 -5.06,5.46 -7.47,8.79 -9.75,11.71 -22.72,27.37 -49.71,51.77 -44.5,40.22 -141.1,54.31 -190.39,99.73 -105.5,97.21 -102.9,240.74 -5.37,338.27 57.04,57.04 133,76.84 244.26,188.1 13.07,13.07 24.17,27.81 33.59,43.25l-0.04 0.01 0.04 -0.01c44.91,73.58 51.74,163.03 51.74,163.03 0,0 -14.35,-88.93 -65.52,-158.55 -85.14,29.5 -134.46,82.2 -197.06,114.54 -58.06,29.99 -192.45,64.24 -192.45,-40.58 0,-56.29 54.57,-96.94 55.32,-122.25l-0.01 -0.01c0.26,-2.17 0.3,-4.41 0.09,-6.75 -6.65,-74.02 -158.16,-205.54 -202.16,-152.86 -5.42,6.5 -9.06,16.08 -9.12,28.36l-0.01 -0 0.01 0.09c-0.01,3.6 0.28,7.44 0.93,11.5 1.39,15.18 3.29,35.42 1.45,71.76 -3.02,59.91 -61.37,138.17 -64.11,205.14 -5.86,143.33 97.47,242.99 235.39,242.99 80.66,0 148.38,-39.71 305.72,-39.71 18.48,0 36.75,2.58 54.34,6.83 83.79,20.27 151.87,78.69 151.87,78.69 0,0 -73.03,-52.74 -158.45,-65.78 -39.34,81.06 -36.95,153.2 -58.35,220.33 -19.85,62.26 -90.65,181.51 -164.78,107.38 -39.8,-39.8 -29.96,-107.13 -47.33,-125.56l-0.01 0c-1.35,-1.71 -2.91,-3.34 -4.71,-4.84 -57.05,-47.64 -257.17,-33.5 -251.04,34.85 0.76,8.43 4.96,17.77 13.61,26.5l-0.01 0 0.07 0.06c2.54,2.56 5.46,5.06 8.79,7.47 11.71,9.75 27.37,22.72 51.77,49.71 40.22,44.5 54.31,141.1 99.73,190.39 97.21,105.49 240.74,102.9 338.26,5.37 57.04,-57.04 76.84,-133 188.1,-244.26 13.07,-13.07 27.81,-24.17 43.25,-33.59l0 0c73.58,-44.91 163.03,-51.74 163.03,-51.74 0,0 -88.93,14.35 -158.55,65.53 29.5,85.14 82.2,134.45 114.54,197.06 29.99,58.06 64.24,192.45 -40.58,192.45 -56.29,0 -96.94,-54.57 -122.25,-55.32l-0.01 0.01c-2.17,-0.26 -4.41,-0.3 -6.75,-0.09 -74.02,6.65 -205.54,158.16 -152.86,202.16 6.5,5.42 16.08,9.06 28.36,9.12l-0 0.01 0.09 -0.01c3.6,0.01 7.44,-0.28 11.5,-0.93 15.18,-1.39 35.42,-3.29 71.76,-1.45 59.91,3.02 138.17,61.37 205.14,64.11 143.33,5.86 242.99,-97.47 242.99,-235.39 0,-80.66 -39.71,-148.38 -39.71,-305.72 0,-18.48 2.58,-36.75 6.83,-54.34 20.27,-83.79 78.69,-151.87 78.69,-151.87 0,0 -52.74,73.03 -65.78,158.45 81.06,39.34 153.2,36.95 220.33,58.35 62.26,19.85 181.51,90.65 107.39,164.78 -39.8,39.8 -107.13,29.96 -125.56,47.33l0 0.01c-1.71,1.35 -3.34,2.91 -4.84,4.71 -47.64,57.05 -33.5,257.17 34.86,251.04 8.43,-0.76 17.77,-4.96 26.5,-13.61l0 0.01 0.06 -0.07c2.56,-2.54 5.06,-5.46 7.47,-8.79 9.75,-11.71 22.72,-27.37 49.72,-51.77 44.5,-40.23 141.1,-54.31 190.39,-99.73 105.49,-97.21 102.9,-240.74 5.37,-338.27 -57.04,-57.04 -133,-76.84 -244.26,-188.1 -13.07,-13.07 -24.17,-27.81 -33.59,-43.25l0.04 -0.01 -0.04 0.01c-44.91,-73.58 -51.74,-163.03 -51.74,-163.03 0,0 14.35,88.93 65.52,158.55 85.14,-29.5 134.46,-82.2 197.06,-114.54 58.06,-29.99 192.45,-64.24 192.45,40.58 0,56.29 -54.57,96.94 -55.32,122.25l0.01 0.01c-0.26,2.16 -0.3,4.41 -0.09,6.75 6.65,74.02 158.16,205.54 202.16,152.86 5.42,-6.5 9.06,-16.08 9.12,-28.36l0.01 0 -0.01 -0.09c0.01,-3.6 -0.28,-7.44 -0.93,-11.5 -1.39,-15.18 -3.29,-35.42 -1.46,-71.76 3.02,-59.91 61.37,-138.17 64.11,-205.14 5.86,-143.33 -97.47,-242.99 -235.39,-242.99 -80.66,0 -148.38,39.71 -305.72,39.71 -18.48,0 -36.75,-2.58 -54.34,-6.83 -83.79,-20.27 -151.87,-78.69 -151.87,-78.69 0,0 73.03,52.74 158.45,65.78zm-840.48 -651.5c-2.56,-92.25 29.72,-125.28 53.79,-127.44 62.16,-5.58 75.02,176.42 31.7,228.3 -24.71,29.59 -82.93,-8.61 -85.49,-100.86zm688.62 -71.54c63.42,-67.04 109.6,-67.57 128.15,-52.07 47.9,40.01 -71.7,177.79 -139.02,183.84 -38.39,3.45 -52.55,-64.73 10.87,-131.77zm609.06 1124.96c67.04,63.42 67.57,109.6 52.07,128.15 -40.01,47.9 -177.8,-71.7 -183.84,-139.02 -3.45,-38.39 64.73,-52.55 131.77,10.87zm-436.34 537.52c2.56,92.25 -29.72,125.27 -53.79,127.44 -62.16,5.58 -75.02,-176.42 -31.7,-228.3 24.71,-29.59 82.93,8.61 85.49,100.86zm-688.62 71.54c-63.42,67.04 -109.6,67.57 -128.15,52.07 -47.9,-40.01 71.7,-177.79 139.02,-183.84 38.39,-3.45 52.55,64.73 -10.87,131.77zm-537.52 -436.34c-92.25,2.56 -125.28,-29.72 -127.44,-53.79 -5.58,-62.16 176.42,-75.02 228.3,-31.7 29.59,24.71 -8.61,82.93 -100.86,85.49zm-71.54 -688.62c-67.04,-63.42 -67.57,-109.6 -52.07,-128.15 40.01,-47.9 177.79,71.7 183.84,139.02 3.45,38.39 -64.73,52.55 -131.77,-10.87zm1662.48 -172.71c92.25,-2.56 125.28,29.72 127.44,53.79 5.58,62.16 -176.42,75.02 -228.3,31.7 -29.59,-24.71 8.61,-82.93 100.86,-85.49z"/>
 </g>
</svg>
