<svg style="position: absolute; width: 0; height: 0; overflow: hidden;" version="1.1" xmlns="http://www.w3.org/2000/svg" xmlns:xlink="http://www.w3.org/1999/xlink">
<defs>
<symbol id="i-folder-plus-fill" viewBox="0 0 32 32">
<title>folder-plus-fill</title>
<path class="path1" d="M1.998 27.999h28.001v-20h-13.001l-4.001-3.999h-7.998l-3 3v20.999zM13.998 12h4.001v3.999h3.999v4.001h-3.999v3.999h-4.001v-3.999h-3.999v-4.001h3.999v-3.999z"></path>
</symbol>
<symbol id="i-folder-minus-fill" viewBox="0 0 32 32">
<title>folder-minus-fill</title>
<path class="path1" d="M1.998 28h28.001v-20h-13.001l-4-3.999h-8l-3 3 0.003 20.997-0.003 0.001zM21.998 16.001v4.001c-6.555 0-5.444 0-11.999 0v-4.001c6.554 0 5.444 0 11.999 0z"></path>
</symbol>
<symbol id="i-folder-plus-stroke" viewBox="0 0 32 32">
<title>folder-plus-stroke</title>
<path class="path1" d="M14 24.002v-3.999h-3.999v-4.001h3.999v-3.999h4.001v3.999h3.999v4.001h-3.999v3.999h-4.001zM1.999 27.999l0.002-20.997 3-3 7.996-0.002 4.001 3.999h13.001v20h-28.001zM6.002 6.002l-2.001 1.998v18h24v-15.999h-12l-3.999-4.001-6 0.002z"></path>
</symbol>
<symbol id="i-folder-empty" viewBox="0 0 32 32">
<title>folder-empty</title>
<path class="path1" d="M1.998 28.001l0.003-20.999 3-3h7.996l4 3.999h13.002v20h-28.001zM6 6l-2.001 2.001 0.003 18.001h23.999v-15.998h-12l-3.999-4-6.003-0.003zM15.998 12.106c0.85 0 1.659 0.181 2.391 0.505l-1.41 1.41c-0.315-0.078-0.643-0.118-0.981-0.118-1.134 0-2.157 0.46-2.893 1.2-0.744 0.739-1.203 1.77-1.203 2.904 0 0.337 0.039 0.663 0.117 0.978l-1.411 1.41c-0.322-0.732-0.505-1.54-0.505-2.388 0-1.626 0.664-3.109 1.729-4.177 1.068-1.057 2.544-1.722 4.167-1.722v-0.002zM20.999 12.007l-10.998 10.998 1 0.999 10.999-10.998-1.002-0.999zM21.391 15.608c0.327 0.735 0.508 1.548 0.508 2.398 0 1.624-0.664 3.1-1.725 4.168-1.066 1.065-2.548 1.729-4.173 1.729-0.85 0-1.663-0.181-2.395-0.508l1.41-1.411c0.313 0.078 0.645 0.12 0.985 0.12 1.135 0 2.163-0.463 2.902-1.203 0.736-0.736 1.2-1.761 1.2-2.895 0-0.34-0.042-0.672-0.123-0.985l1.41-1.41v-0.003z"></path>
</symbol>
<symbol id="i-slash-plus-slash" viewBox="0 0 32 32">
<title>slash-plus-slash</title>
<path class="path1" d="M0 26l4.002-19.997h3.998l-4.002 19.997h-3.998zM14.001 10.001h4.002v4h3.998v4.002h-3.998v3.998h-4.002v-3.998h-4v-4.002h4v-4zM24.001 26l4-19.997h3.998l-3.998 19.997h-4z"></path>
</symbol>
<symbol id="i-arrowup" viewBox="0 0 32 32">
<title>arrowup</title>
<path class="path1" d="M13.999 28.001v-15.17l-5.584 5.584-2.83-2.83 9-9 1.415-1.585 1.415 1.585 9 9-2.83 2.83-5.584-5.584v15.17z"></path>
</symbol>
<symbol id="i-radial" viewBox="0 0 32 32">
<title>radial</title>
<path class="path1" d="M16.361 2.235c1.167 0.028 2.294 0.203 3.373 0.501h-7.47c1.080-0.298 2.206-0.473 3.373-0.501h0.723zM16 9c3.867 0 7 3.133 7 7s-3.133 7-7 7c-3.867 0-7-3.133-7-7s3.133-7 7-7zM21.214 3.234c0.378 0.151 0.747 0.317 1.106 0.501h-12.638c0.359-0.184 0.728-0.35 1.106-0.501h10.427zM23.224 4.236c0.262 0.158 0.52 0.326 0.77 0.501h-15.988c0.25-0.175 0.508-0.343 0.77-0.501h14.448zM24.672 5.24l0.595 0.496h-18.535l0.595-0.496h17.344zM25.806 6.239l0.484 0.501h-6.513c-0.513-0.208-1.047-0.378-1.597-0.501h7.626zM12.223 6.74h-6.513l0.484-0.501h7.626c-0.55 0.123-1.084 0.293-1.597 0.501zM26.729 7.238l0.402 0.501h-5.495c-0.262-0.179-0.534-0.345-0.815-0.501h5.908zM10.363 7.739h-5.495l0.402-0.501h5.908c-0.281 0.156-0.553 0.321-0.815 0.501zM27.497 8.24l0.331 0.501h-4.951c-0.184-0.175-0.373-0.343-0.572-0.501h5.192zM9.123 8.74h-4.951l0.331-0.501h5.192c-0.198 0.158-0.387 0.326-0.572 0.501zM28.135 9.244l0.274 0.496h-4.614l-0.425-0.496h4.765zM8.204 9.74h-4.614l0.274-0.496h4.765l-0.425 0.496zM28.657 10.243l0.227 0.501h-4.377c-0.106-0.17-0.213-0.338-0.328-0.501h4.479zM7.493 10.744h-4.377l0.227-0.501h4.479c-0.116 0.163-0.222 0.331-0.328 0.501zM29.085 11.244l0.182 0.498h-4.217l-0.25-0.498h4.285zM6.95 11.743h-4.217l0.182-0.498h4.285l-0.25 0.498zM29.425 12.244l0.137 0.501h-4.103l-0.189-0.501h4.155zM6.541 12.744h-4.103l0.137-0.501h4.155l-0.189 0.501zM29.683 13.248l0.099 0.501h-4.035l-0.132-0.501h4.068zM6.253 13.748h-4.035l0.099-0.501h4.068l-0.132 0.501zM29.862 14.247l0.059 0.501h-3.999l-0.076-0.501h4.016zM6.078 14.748h-3.999l0.059-0.501h4.016l-0.076 0.501zM29.966 15.246l0.026 0.501h-3.995l-0.026-0.501h3.995zM6.003 15.747h-3.995l0.026-0.501h3.995l-0.026 0.501zM30.001 16.248l-0.012 0.501h-4.016l0.024-0.501h4.004zM6.026 16.748h-4.016l-0.012-0.501h4.004l0.024 0.501zM29.964 17.252l-0.045 0.501h-4.073l0.076-0.501h4.042zM6.154 17.752h-4.073l-0.045-0.501h4.042l0.076 0.501zM29.855 18.251l-0.080 0.501h-4.16l0.132-0.501h4.108zM6.385 18.752h-4.16l-0.080-0.501h4.108l0.132 0.501zM29.673 19.25l-0.118 0.501h-4.285l0.191-0.501h4.212zM6.73 19.751h-4.285l-0.118-0.501h4.212l0.191 0.501zM29.416 20.252l-0.161 0.501h-4.455l0.253-0.501h4.363zM7.2 20.753h-4.455l-0.161-0.501h4.363l0.253 0.501zM29.071 21.256l-0.203 0.501h-4.689c0.116-0.163 0.222-0.331 0.328-0.501h4.564zM7.822 21.756h-4.689l-0.203-0.501h4.564c0.106 0.17 0.213 0.338 0.328 0.501zM28.638 22.257l-0.248 0.498h-5.020l0.428-0.498h4.84zM8.63 22.756h-5.020l-0.248-0.498h4.84l0.428 0.498zM28.114 23.256l-0.307 0.501h-5.497c0.196-0.161 0.385-0.326 0.569-0.501h5.235zM9.69 23.757h-5.497l-0.307-0.501h5.235c0.184 0.175 0.373 0.34 0.569 0.501zM27.474 24.256l-0.369 0.501h-6.274c0.279-0.154 0.55-0.321 0.813-0.501h5.83zM11.169 24.757h-6.274l-0.369-0.501h5.83c0.262 0.18 0.534 0.347 0.813 0.501zM26.701 25.26c-0.142 0.17-0.293 0.335-0.442 0.496h-8.055c0.543-0.121 1.068-0.291 1.573-0.496h6.924zM13.796 25.756h-8.056c-0.149-0.161-0.3-0.326-0.442-0.496h6.924c0.506 0.206 1.030 0.376 1.573 0.496zM25.768 26.259c-0.175 0.17-0.354 0.34-0.539 0.501h-18.459c-0.184-0.161-0.364-0.331-0.539-0.501h19.536zM24.625 27.261c-0.222 0.172-0.446 0.34-0.678 0.498h-15.894c-0.232-0.158-0.456-0.326-0.678-0.498h17.25zM23.167 28.26c-0.298 0.177-0.602 0.345-0.914 0.501h-12.506c-0.312-0.156-0.617-0.324-0.914-0.501h14.335zM21.126 29.264c-0.496 0.196-1.009 0.361-1.531 0.501h-7.191c-0.522-0.139-1.035-0.305-1.531-0.501h10.252z"></path>
</symbol>
<symbol id="i-check" viewBox="0 0 32 32">
<title>check</title>
<path class="path1" d="M23.641 9.999l2.357 2.357-11.75 11.748-8.249-8.25 2.356-2.356 5.893 5.892z"></path>
</symbol>
<symbol id="i-x" viewBox="0 0 32 32">
<title>x</title>
<path class="path1" d="M22.144 8.001l1.855 1.853v0.501l-5.644 5.644 5.644 5.644v0.501l-1.855 1.856h-0.501l-5.645-5.645-5.644 5.645h-0.496l-1.861-1.861v-0.496l5.647-5.644-5.647-5.645v-0.491l1.86-1.861h0.501l5.64 5.64 5.64-5.64z"></path>
</symbol>
<symbol id="i-drag" viewBox="0 0 32 32">
<title>drag</title>
<path class="path1" d="M3.999 11.999h23.999v2.001h-23.999v-2.001zM7.998 24.001h15.999v2.001h-15.999v-2.001zM3.999 17.998h23.999v2.001h-23.999v-2.001zM7.998 6.001h15.999v2.001h-15.999v-2.001z"></path>
</symbol>
<symbol id="i-undo" viewBox="0 0 32 32">
<title>undo</title>
<path class="path1" d="M5.999 8.001v7.998h7.998l-2.919-2.919c0.554-0.688 1.251-1.244 2.020-1.642 0.874-0.449 1.873-0.694 2.9-0.694 1.749 0 3.332 0.707 4.485 1.853 1.137 1.137 1.846 2.725 1.846 4.478 0 1.136-0.299 2.227-0.843 3.174-0.381 0.661-0.886 1.26-1.491 1.748l2.353 2.353c0.809-0.704 1.486-1.53 2.016-2.439 0.838-1.45 1.3-3.116 1.3-4.835 0-2.66-1.085-5.081-2.832-6.834-1.748-1.749-4.167-2.832-6.834-2.832-1.549 0-3.063 0.379-4.422 1.074-1.073 0.553-2.045 1.311-2.856 2.239l-2.722-2.722z"></path>
</symbol>
<symbol id="i-circled-plus" viewBox="0 0 32 32">
<title>circled-plus</title>
<path class="path1" d="M15.999 6.002c5.523 0 9.999 4.476 9.999 9.999s-4.476 9.999-9.999 9.999c-5.522 0-9.998-4.476-9.998-9.999s4.476-9.999 9.998-9.999zM9.999 14.001v4h3.999v3.997h4.002v-3.997h3.996v-4h-3.996v-4h-4.002v4h-3.999z"></path>
</symbol>
<symbol id="i-circled-minus" viewBox="0 0 32 32">
<title>circled-minus</title>
<path class="path1" d="M15.998 6.003c5.523 0 9.999 4.476 9.999 9.999s-4.476 9.999-9.999 9.999c-5.523 0-9.999-4.476-9.999-9.999s4.476-9.999 9.999-9.999zM9.999 14.001v4.002h11.998v-4.002h-11.998z"></path>
</symbol>
<symbol id="i-add-stream" viewBox="0 0 36 32">
<title>add-stream</title>
<path class="path1" d="M15.999 10.003h3.999v3.997h3.999v4.006h-3.999v3.992h-3.999v-3.992h-3.998v-4.006h3.998z"></path>
<path class="path2" d="M29.189 5.44l1.666-1.19 0.458 0.439c2.894 2.893 4.687 6.895 4.687 11.313 0 4.414-1.793 8.418-4.687 11.312l-0.458 0.443-1.666-1.191c0.244-0.213 0.482-0.434 0.712-0.663 2.53-2.529 4.1-6.035 4.1-9.9 0-3.868-1.57-7.37-4.1-9.901-0.23-0.229-0.466-0.448-0.712-0.661z"></path>
<path class="path3" d="M6.81 5.44l-1.665-1.19-0.458 0.439c-2.893 2.893-4.687 6.895-4.687 11.313 0 4.414 1.793 8.418 4.687 11.312l0.458 0.443 1.665-1.191c-0.243-0.213-0.482-0.434-0.711-0.663-2.53-2.529-4.101-6.035-4.101-9.9 0-3.868 1.572-7.37 4.101-9.901 0.229-0.229 0.466-0.448 0.711-0.661z"></path>
<path class="path4" d="M11.938 9.103l-1.743-1.245c-0.454 0.321-0.877 0.681-1.269 1.072-1.807 1.807-2.929 4.311-2.929 7.071 0 2.756 1.122 5.255 2.929 7.065 0.392 0.392 0.822 0.753 1.273 1.077l1.741-1.245c-0.586-0.346-1.128-0.762-1.604-1.239-1.441-1.446-2.341-3.453-2.341-5.659 0-2.209 0.897-4.212 2.343-5.658 0.476-0.477 1.016-0.896 1.598-1.241z"></path>
<path class="path5" d="M24.056 9.103l1.744-1.245c0.453 0.321 0.876 0.681 1.269 1.072 1.807 1.807 2.929 4.311 2.929 7.071 0 2.756-1.122 5.255-2.929 7.065-0.393 0.392-0.823 0.753-1.273 1.077l-1.741-1.245c0.586-0.346 1.127-0.762 1.604-1.239 1.441-1.446 2.341-3.453 2.341-5.659 0-2.209-0.898-4.212-2.343-5.658-0.477-0.477-1.016-0.896-1.599-1.241z"></path>
</symbol>
<symbol id="i-template" viewBox="0 0 32 32">
<title>template</title>
<path class="path1" d="M25.999 28.001v-15.999h-1.998v13.999l-10.002-0.001v1.998l12 0.003zM10.001 24.001h11.999v-16.001h-2.001v14.001h-9.998v2.001zM17.998 20.003v-16.001h-11.999v16.001h11.999zM8 6.002h8v12h-8v-12z"></path>
</symbol>
<symbol id="i-untemplate" viewBox="0 0 32 32">
<title>untemplate</title>
<path class="path1" d="M25.999 28.001l-12-0.001v-1.998l10.002 0.001v-14h1.998v15.998zM26.637 6.638l-8.639 8.639c-1.579 1.576-3.154 3.151-4.729 4.727-2.211 2.21-4.423 4.421-6.634 6.633l-1.27-1.271 5.361-5.361h-4.729v-16.002h12v8.733c3.718-3.718 3.668-3.669 7.367-7.368l1.271 1.271zM12.728 18.003l3.272-3.27v-8.73h-8.001v12h4.729zM13.813 22.002h6.187v-6.185l2.001-2v10.184h-10.188l2.001-2zM17.998 20.004h-2.187l2.187-2.186v2.186z"></path>
</symbol>
<symbol id="i-question" viewBox="0 0 32 32">
<title>question</title>
<path class="path1" d="M13.996 20.002c0-1.257 0.369-2.418 0.672-3.161 0.304-0.741 0.862-1.478 1.67-2.201 0.808-0.721 1.353-1.12 1.617-1.571 0.267-0.452 0.591-1.184 0.591-1.69 0-1.517-0.883-2.214-2.282-2.214-0.66 0-1.507 0.209-1.903 0.615-0.398 0.403-0.345 1.5-0.365 2.221h-3.999c0.018-1.715 0.73-3.581 1.815-4.546 1.084-0.966 2.308-1.456 4.188-1.456 1.897 0 3.641 0.462 4.685 1.38 1.044 0.916 1.314 1.944 1.314 3.621 0 0.763-0.166 2.005-0.504 2.678-0.342 0.676-0.68 1.191-1.535 2.007l-1.086 1.034c-1.099 1.047-0.876 1.281-0.876 3.282h-4zM15.996 21.795c1.216 0 2.204 0.987 2.204 2.205 0 1.22-0.988 2.207-2.204 2.207-1.217 0-2.204-0.987-2.204-2.207 0-1.218 0.987-2.205 2.204-2.205z"></path>
</symbol>
<symbol id="i-spinner" viewBox="0 0 32 32">
<title>spinner</title>
<path class="path1" d="M2.693 7.134c1.48-2.223 3.477-4.009 5.765-5.234 2.295-1.226 4.882-1.898 7.543-1.898v4c-2.016 0-3.96 0.501-5.668 1.412-1.71 0.916-3.205 2.256-4.314 3.921l-3.325-2.201zM24.864 2.692c2.223 1.48 4.009 3.477 5.234 5.765 1.226 2.295 1.898 4.882 1.898 7.543h-4c0-2.016-0.501-3.96-1.413-5.667-0.915-1.711-2.255-3.206-3.92-4.315l2.201-3.325zM7.136 29.308c-2.223-1.48-4.009-3.477-5.234-5.765-1.226-2.296-1.898-4.882-1.898-7.544h4c0 2.018 0.501 3.962 1.412 5.668 0.916 1.711 2.256 3.205 3.92 4.315l-2.2 3.325zM29.31 24.863c-1.48 2.223-3.477 4.009-5.765 5.234-2.296 1.226-4.882 1.898-7.544 1.898v-4c2.018 0 3.96-0.501 5.669-1.412 1.71-0.916 3.205-2.256 4.315-3.921l3.325 2.201z"></path>
</symbol>
<symbol id="i-chevron-right" viewBox="0 0 32 32">
<title>chevron-right</title>
<path class="path1" d="M10.998 1.998l-2.499 2.5 11.501 11.501-11.497 11.499 2.497 2.499 13.998-14.001z"></path>
</symbol>
<symbol id="i-new" viewBox="0 0 32 32">
<title>new</title>
<path class="path1" d="M12 12v-4.729l-4.729 4.729h4.729zM22.421 14h1.153l0.579 1.002-0.576 0.999h-1.157l-0.576-0.999 0.579-1.002zM24.998 15l2.827-1.635-0.999-1.732-2.83 1.632v-3.265h-2.001v3.262l-2.827-1.63-0.999 1.732 2.827 1.635-2.83 1.632 0.999 1.734 2.83-1.635v3.269h2.001v-3.272l2.832 1.637 0.999-1.734-2.83-1.632zM12.727 4.001h11.272v3.999h-1.998v-2.001h-8.003v8h-7.998v12h16.001v-3.999h1.998v6h-20v-15.271l8.728-8.728z"></path>
</symbol>
<symbol id="i-clone" viewBox="0 0 32 32">
<title>clone</title>
<path class="path1" d="M16.001 13.998h-4.729l4.729-4.729v4.729zM8.001 25.998v4.001h20v-23.999h-3.999v-4.001h-20v23.999h3.999zM22.004 5.999h-5.275l-8.728 8.728v9.269h-1.998v-20h16.001v2.003zM26.003 27.998h-16.001v-12h7.998v-8.001h8.003v20z"></path>
</symbol>
<symbol id="i-save-draft" viewBox="0 0 32 32">
<title>save-draft</title>
<path class="path1" d="M2.001 1.999v28.003h28.001v-23.002l-4.999-5.001h-23.002zM6 18.001h20.002v10h-20.002v-10zM22.003 6h-4.002v7.999h4.002v-7.999zM8.001 3.999h16v12.001h-16v-12.001z"></path>
<path class="path2" d="M7.5 23.602l3-4.002 1.16 0.191 1.661 4.977 5.24-5.24 1.127 0.361 0.787 4.727 3.090-3.088 0.938 0.94-4.002 3.999-1.124-0.361-0.787-4.725-5.086 5.086-1.101-0.262-1.599-4.798-2.242 2.991z"></path>
</symbol>
<symbol id="i-upload" viewBox="0 0 32 32">
<title>upload</title>
<path class="path1" d="M26 24.001c3.314 0 6-2.686 6-6s-2.686-6-6-6l-0.206 0.005c0.683-1.023 1.082-2.251 1.082-3.572 0-3.553-2.882-6.435-6.435-6.435s-6.435 2.882-6.435 6.435v0.035c-0.737-1.462-2.251-2.471-4.002-2.471-2.473 0-4.476 2.005-4.476 4.476 0 0.966 0.305 1.861 0.827 2.591-0.279-0.043-0.565-0.066-0.855-0.066-3.038 0-5.502 2.464-5.502 5.502s2.464 5.499 5.502 5.499h6.498v6h8.001v-6h6zM13.998 18.001l-2.998 3-3-3 7.998-8.001 8.001 8.001-3 3-3-3v9.999h-3.999l-0.002-9.999z"></path>
</symbol>
<symbol id="i-lock" viewBox="0 0 32 32">
<title>lock</title>
<path class="path1" d="M5.999 15.997h1.998v-3.999c0-1.652 0.675-3.156 1.76-4.239 1.085-1.085 2.587-1.76 4.239-1.76h4.001c1.652 0 3.156 0.675 4.239 1.76 1.085 1.085 1.76 2.587 1.76 4.239v3.999h1.998v11.999h-19.999v-11.999zM11.999 15.997h7.997v-3.999c0-0.548-0.227-1.048-0.589-1.409s-0.861-0.589-1.409-0.589h-4.001c-0.548 0-1.048 0.227-1.409 0.589s-0.589 0.861-0.589 1.409v3.999z"></path>
</symbol>
<symbol id="i-search" viewBox="0 0 32 32">
<title>search</title>
<path class="path1" d="M12.004 0c-6.628 0-12 5.371-12 12s5.371 12 12 12c2.516 0 4.847-0.772 6.775-2.095l7.8 8.492c0.387 0.425 0.876 0.661 1.453 0.678s1.080-0.182 1.488-0.59l0.969-0.969c0.409-0.409 0.607-0.912 0.59-1.488s-0.255-1.063-0.678-1.453l-8.454-7.852c1.302-1.918 2.058-4.231 2.058-6.723 0-6.628-5.371-12-12-12zM12.004 2.001c5.523 0 9.999 4.476 9.999 9.999s-4.476 9.999-9.999 9.999c-5.523 0-9.999-4.476-9.999-9.999s4.476-9.999 9.999-9.999z"></path>
</symbol>
<symbol id="i-download" viewBox="0 0 32 32">
<title>download</title>
<path class="path1" d="M5.998 21.997h20.004v4.001h-20.004v-4.001zM7.415 4.585l8.586 8.586 8.586-8.586 2.83 2.83-11.415 11.415-11.415-11.415 2.83-2.83z"></path>
</symbol>
</defs>
</svg>
