<svg style="position: absolute; width: 0; height: 0; overflow: hidden;" version="1.1" xmlns="http://www.w3.org/2000/svg" xmlns:xlink="http://www.w3.org/1999/xlink">
<defs>
<symbol id="i-shift" viewBox="0 0 32 32">
<path class="path1" d="M0 2.002h12.001v28.005h-12.001v-28.005zM22.001 12.001v7.998l5.996-3.995-5.996-4.003zM15.996 2.002h16.004v4.003h-2.002v-2.002h-12.001v24.002h12.001v-2.002h2.002v4.003h-16.004v-28.005zM32 9.999v4.003h-2.002v-4.003h2.002zM32 17.997v4.003h-2.002v-4.003h2.002zM9.999 3.995h-7.998v24.002h7.998c0-7.998 0-16.004 0-24.002z"></path>
<path class="path2" fill-opacity="0.5" d="M2.002 4.003h7.998v24.002h-7.998v-24.002z"></path>
</symbol>
<symbol id="i-overlay" viewBox="0 0 32 32">
<path class="path1" fill-opacity="0.5" d="M2.002 4.004v24h8v-8.009l6.007-3.996-6.007-3.996v-8z"></path>
<path class="path2" d="M18.002 16.009l-5.998 3.996v10.002h-12.004v-28.004h12.004v9.993l5.998 4.004zM14.007 3.996v-2.002h18.002v28.004h-18.002v-2.002h16v-24h-16zM2.002 3.996v24h8v-8l5.998-3.996-5.998-4.004v-8h-8z"></path>
</symbol>
<symbol id="i-fixed" viewBox="0 0 32 32">
<path class="path1" fill-opacity="0.5" d="M2.001 3.999h8.001v23.999h-8.001z"></path>
<path class="path2" d="M1.002 2.001l10.998-0.002v27.999l-11.998 0.002v-27.999h0.999zM17 2.001h15v27.999h-15.999v-27.999h0.999zM30.002 3.999h-12.002v24.002h12.002v-24.002zM10.001 3.997l-8.001 0.002v24.002l8.001-0.002v-24.002z"></path>
</symbol>
<symbol id="i-up" viewBox="0 0 32 32">
<path class="path1" d="M2.003 21.007l2.499 2.499 11.501-11.501 11.499 11.497 2.499-2.497-14-13.998z"></path>
</symbol>
<symbol id="i-down" viewBox="0 0 32 32">
<path class="path1" d="M2.001 12.999l2.499-2.499 11.501 11.501 11.499-11.497 2.499 2.497-14 13.998z"></path>
</symbol>
<symbol id="i-left" viewBox="0 0 32 32">
<path class="path1" d="M19.001 2.001l2.499 2.499-11.501 11.501 11.497 11.499-2.497 2.499-13.998-14z"></path>
</symbol>
<symbol id="i-right" viewBox="0 0 32 32">
<path class="path1" d="M10.998 1.998l-2.499 2.499 11.501 11.501-11.497 11.499 2.497 2.499 13.998-14z"></path>
</symbol>
<symbol id="i-home" viewBox="0 0 32 32">
<path class="path1" d="M3.865 16.001l12.132-12.999 14.003 15v12h-28.003v-12l1.868-2.001zM15.999 8.001l-9.999 11.001v6.999h19.998v-6.999l-9.999-11.001z"></path>
</symbol>
<symbol id="i-info" viewBox="0 0 32 32">
<path class="path1" d="M6 29.999h20v-4.001h-6v-13.998h-12v4.001h6v9.997h-8.001v4.001zM14.001 1.998v6h6v-6h-6z"></path>
</symbol>
<symbol id="i-delete" viewBox="0 0 32 32">
<path class="path1" d="M8.428 26l7.587-7.587 7.59 7.587h2.395v-2.601l-7.486-7.486 7.486-7.483v-2.431h-2.565l-7.417 7.415-7.415-7.415h-2.601v2.397l7.514 7.514-7.514 7.516v2.573z"></path>
</symbol>
<symbol id="i-trash" viewBox="0 0 32 32">
<path class="path1" d="M26.005 10.002l-2.003 19.998h-16.001l-1.996-19.998h2.001l1.996 17.999h12.215l1.788-17.999h2.001zM20.003 20h-4.001v-3.999h4.001v3.999zM12.002 26h3.999v-3.999h-3.999v3.999zM16.001 5.997c1.105 0 2.001 0.896 2.001 2.001h-4.001c0-1.105 0.895-2.001 2.001-2.001zM20 7.998c0-2.209-1.79-3.999-3.999-3.999s-3.999 1.79-3.999 3.999h-8.001v2.001h23.999v-2.001h-8.001z"></path>
</symbol>
<symbol id="i-trash-open" viewBox="0 0 32 32">
<path class="path1" d="M26.002 10.001l-2.003 19.998h-16.001l-1.996-19.998h2l1.996 17.999h12.215l1.788-17.999h2zM20 15.998h-4.002v-3.999h4.002v3.999zM12 23.999h3.999v-3.999h-3.999v3.999zM15.998 3.999c1.106 0 2.001 0.895 2.001 2.001h-4.001c0-1.105 0.895-2.001 2-2.001zM19.998 6c0-2.208-1.79-3.999-3.999-3.999s-3.999 1.79-3.999 3.999h-8.001v2.001h24v-2.001h-8.001z"></path>
</symbol>
<symbol id="i-refresh" viewBox="0 0 32 32">
<path class="path1" d="M15.999 1.998c3.867 0 7.365 1.569 9.9 4.104l4.101-4.101v12h-12l5.072-5.072c-1.81-1.809-4.311-2.929-7.073-2.929-5.522 0-9.999 4.477-9.999 9.999s4.477 9.999 9.999 9.999c4.155 0 7.717-2.535 9.227-6.144l3.543 1.89c-2.194 4.866-7.087 8.256-12.77 8.256-7.732 0-14.001-6.269-14.001-14.001s6.269-14.001 14.001-14.001z"></path>
</symbol>
<symbol id="i-dots" viewBox="0 0 32 32">
<path class="path1" d="M16.001 3.798c1.214 0 2.199 0.985 2.199 2.199s-0.985 2.199-2.199 2.199c-1.214 0-2.199-0.985-2.199-2.199s0.985-2.199 2.199-2.199zM16.001 23.801c1.214 0 2.199 0.985 2.199 2.199s-0.985 2.199-2.199 2.199c-1.214 0-2.199-0.985-2.199-2.199s0.985-2.199 2.199-2.199zM15.998 13.8c1.214 0 2.199 0.985 2.199 2.199s-0.985 2.199-2.199 2.199c-1.214 0-2.199-0.985-2.199-2.199s0.985-2.199 2.199-2.199z"></path>
</symbol>
<symbol id="i-warning" viewBox="0 0 32 32">
<path class="path1" d="M19.514 3.461l11.914 20.422c0.753 1.294 0.762 2.778 0.015 4.076-0.747 1.297-2.031 2.041-3.53 2.041h-23.824c-1.497 0-2.782-0.744-3.528-2.041-0.747-1.298-0.74-2.782 0.014-4.076l11.909-20.422c0.751-1.285 2.026-2.020 3.516-2.020 1.486 0 2.767 0.735 3.514 2.020zM15.998 23.794c-1.217 0-2.204 0.988-2.204 2.206s0.987 2.206 2.204 2.206c1.216 0 2.204-0.988 2.204-2.206s-0.988-2.206-2.204-2.206zM17.997 21.999l1.512-10.574c0.127-0.893-0.113-1.71-0.704-2.39s-1.365-1.032-2.266-1.032h-1.083c-0.901 0-1.678 0.352-2.266 1.032-0.591 0.68-0.831 1.497-0.704 2.39l1.511 10.574h3.999z"></path>
</symbol>
<symbol id="i-plus" viewBox="0 0 32 32">
<path class="path1" d="M14.002 6.002h3.999v7.999h8.001v3.999h-8.001v8.001h-3.999v-8.001h-7.999v-3.999h7.999z"></path>
</symbol>
<symbol id="i-live" viewBox="0 0 32 32">
<path class="path1" d="M32 6.035v11.96l-4.924-4.925-9.033 9.147-5.983-5.98-9.958 9.733-2.102-2.114 12.068-11.839 5.982 5.979 6.919-7.033-4.927-4.927z"></path>
</symbol>
</defs>
</svg>