<?xml version="1.0" encoding="UTF-8"?>
<!DOCTYPE svg PUBLIC "-//W3C//DTD SVG 1.1//EN" "http://www.w3.org/Graphics/SVG/1.1/DTD/svg11.dtd">
<!-- Creator: CorelDRAW X8 -->
<svg xmlns="http://www.w3.org/2000/svg" xml:space="preserve" width="349px" height="103px" version="1.1" style="shape-rendering:geometricPrecision; text-rendering:geometricPrecision; image-rendering:optimizeQuality; fill-rule:evenodd; clip-rule:evenodd"
viewBox="0 0 122536 36164"
 xmlns:xlink="http://www.w3.org/1999/xlink">
 <defs>
  <style type="text/css">
   <![CDATA[
    .fil0 {fill:none}
    .fil4 {fill:#00CCFF}
    .fil3 {fill:#FF6600}
    .fil2 {fill:#00CCFF;fill-rule:nonzero}
    .fil1 {fill:#FF6600;fill-rule:nonzero}
    .fil5 {fill:white;fill-rule:nonzero}
   ]]>
  </style>
   <mask id="id0">
  <linearGradient id="id1" gradientUnits="userSpaceOnUse" x1="67163.6" y1="18999.9" x2="32460.5" y2="18998.2">
   <stop offset="0" style="stop-opacity:1; stop-color:white"/>
   <stop offset="1" style="stop-opacity:0; stop-color:white"/>
  </linearGradient>
    <rect style="fill:url(#id1)" x="33530" y="2743" width="28179" height="28202"/>
   </mask>
   <mask id="id2">
  <linearGradient id="id3" gradientUnits="userSpaceOnUse" x1="56806.4" y1="17496.9" x2="95840" y2="17495.2">
   <stop offset="0" style="stop-opacity:1; stop-color:white"/>
   <stop offset="1" style="stop-opacity:0; stop-color:white"/>
  </linearGradient>
    <rect style="fill:url(#id3)" x="63079" y="1654" width="32774" height="32800"/>
   </mask>
 </defs>
 <g id="Слой_x0020_1">
  <metadata id="CorelCorpID_0Corel-Layer"/>
  <rect class="fil0" width="122536" height="36164"/>
  <path class="fil1" d="M48211 1266l32 3c4297,163 8124,2056 10833,4983 2704,2919 4296,6866 4141,11152l-1 31c-164,4304 -2055,8133 -4976,10843 -2918,2705 -6864,4299 -11150,4144l-31 0c-3442,-131 -6582,-1373 -9088,-3365l3167 0c1782,953 3799,1528 5952,1615l31 1c3816,145 7330,-1271 9925,-3677 2590,-2402 4268,-5788 4421,-9591l1 -31c146,-3822 -1269,-7339 -3674,-9936 -2397,-2590 -5781,-4267 -9582,-4420l-33 -1c-3295,-125 -6364,914 -8812,2749l-2675 0c122,-120 245,-239 370,-355 2917,-2704 6863,-4298 11149,-4145z"/>
  <path class="fil2" d="M80032 1847c-4473,-170 -8592,1490 -11633,4311 -3044,2822 -5013,6804 -5183,11277 -170,4479 1488,8602 4306,11646 2818,3044 6798,5012 11269,5182 4473,170 8591,-1489 11633,-4310 361,-334 706,-685 1035,-1051l2271 0c-636,839 -1343,1620 -2112,2333 -3371,3126 -7934,4965 -12888,4777 -4955,-190 -9366,-2371 -12490,-5745 -3123,-3374 -4960,-7938 -4772,-12893 189,-4961 2368,-9375 5737,-12498 3364,-3120 7915,-4958 12857,-4778l32 1c4840,185 9160,2271 12269,5512l-2553 0c-2649,-2220 -6027,-3613 -9747,-3762l-31 -2z"/>
  <path class="fil3" style="mask:url(#id0)" d="M48191 2755l-34 -1c-3886,-148 -7466,1294 -10111,3746 -2638,2447 -4348,5897 -4504,9771l-1 35c-148,3893 1294,7477 3743,10124 2443,2638 5891,4347 9763,4503l33 1c3888,148 7469,-1295 10112,-3747 2640,-2447 4349,-5897 4505,-9773l1 -32c149,-3894 -1293,-7477 -3743,-10124 -2443,-2638 -5891,-4347 -9764,-4503z"/>
  <path class="fil4" style="mask:url(#id2)" d="M80093 1667c-4523,-172 -8687,1506 -11762,4358 -3078,2853 -5068,6880 -5240,11402 -172,4529 1505,8697 4354,11775 2849,3077 6873,5067 11393,5240 4523,172 8687,-1507 11763,-4358 3070,-2847 5058,-6862 5238,-11373l1 -31c172,-4529 -1504,-8697 -4354,-11775 -2842,-3070 -6853,-5057 -11361,-5237l-32 -1z"/>
  <path class="fil5" d="M539 25631l2816 -16257 4496 12c1563,0 2756,377 3575,1131 819,755 1177,1830 1082,3221 -126,1653 -991,2850 -2591,3593 575,240 994,655 1261,1246 270,591 373,1318 312,2183 -110,1513 -647,2702 -1612,3571 -963,865 -2256,1300 -3879,1300l-5460 0zm4435 -7066l-762 4345 1879 23c705,-16 1261,-275 1665,-778 408,-503 617,-1219 632,-2149 0,-892 -377,-1368 -1128,-1429l-2286 -12zm400 -2400l1517 23c812,-16 1425,-290 1845,-824 415,-533 594,-1215 533,-2046 -72,-747 -519,-1143 -1338,-1189l-1844 -11 -713 4047zm15398 6150l-4322 0 -1417 3316 -3483 0 7747 -16257 2938 0 2130 16257 -3315 0 -278 -3316zm-3148 -2744l2927 0 -461 -5765 -2466 5765zm11793 3339l5594 0 -480 2721 -8787 0 2816 -16257 3201 0 -2344 13536zm10715 0l5594 0 -480 2721 -8788 0 2816 -16257 3201 0 -2343 13536zm14079 -1635c72,-553 -8,-1014 -240,-1383 -237,-366 -724,-728 -1464,-1083 -739,-354 -1360,-720 -1859,-1101 -1360,-1033 -1985,-2339 -1875,-3917 68,-907 350,-1719 853,-2428 503,-712 1174,-1265 2017,-1661 841,-393 1741,-579 2701,-556 1391,30 2481,510 3266,1444 785,937 1147,2134 1090,3590l-3194 -12c80,-1528 -407,-2302 -1463,-2324 -545,-16 -1010,163 -1402,529 -389,370 -625,846 -709,1426 -111,872 491,1615 1810,2232 1315,621 2260,1315 2835,2092 640,854 911,1898 816,3125 -115,1414 -671,2542 -1677,3388 -1002,846 -2256,1254 -3761,1223 -1509,-30 -2706,-545 -3582,-1539 -880,-999 -1280,-2275 -1208,-3830l3216 11c-61,961 65,1650 373,2062 309,415 797,621 1456,621 583,-8 1040,-187 1376,-541 335,-354 541,-812 625,-1368zm19304 -11901l949 11691 4987 -11691 4223 0 -2827 16257 -3213 0 781 -4501 1406 -6417 -4980 10918 -2176 0 -1227 -11288 -926 7000 -739 4288 -3205 0 2816 -16257 4131 0zm18331 12941l-4321 0 -1418 3316 -3483 0 7748 -16257 2938 0 2130 16257 -3315 0 -279 -3316zm-3147 -2744l2926 0 -461 -5765 -2465 5765zm15158 1704c72,-553 -8,-1014 -241,-1383 -236,-366 -724,-728 -1463,-1083 -739,-354 -1360,-720 -1859,-1101 -1361,-1033 -1986,-2339 -1875,-3917 68,-907 350,-1719 853,-2428 503,-712 1174,-1265 2016,-1661 842,-393 1742,-579 2702,-556 1391,30 2481,510 3266,1444 785,937 1147,2134 1090,3590l-3194 -12c80,-1528 -408,-2302 -1463,-2324 -545,-16 -1010,163 -1402,529 -389,370 -625,846 -709,1426 -111,872 491,1615 1810,2232 1315,621 2260,1315 2835,2092 640,854 911,1898 816,3125 -115,1414 -671,2542 -1677,3388 -1002,846 -2256,1254 -3761,1223 -1509,-30 -2706,-545 -3582,-1539 -880,-999 -1281,-2275 -1208,-3830l3216 11c-61,961 65,1650 373,2062 309,415 797,621 1456,621 583,-8 1040,-187 1376,-541 335,-354 541,-812 625,-1368zm15660 4356l-3193 0 1204 -6951 -4676 0 -1208 6951 -3205 0 2817 -16257 3201 0 -1136 6585 4675 0 1151 -6585 3194 0 -2824 16257z"/>
  <path class="fil5" d="M62565 12058c542,1680 806,3481 738,5346l-1 31c-72,1879 -472,3666 -1144,5310 -458,-1698 -672,-3492 -606,-5340l2 -31 0 0c71,-1862 422,-3647 1011,-5316z"/>
 </g>
</svg>
